<mxfile host="app.diagrams.net" modified="2023-04-17T15:25:09.979Z" agent="Mozilla/5.0 (Windows NT 10.0; Win64; x64) AppleWebKit/537.36 (KHTML, like Gecko) Chrome/111.0.0.0 Safari/537.36" etag="hRjqkMFI0mk8CTtGYZIu" version="21.1.8" type="github" pages="2">
  <diagram name="Requirements" id="MF8iuLMwMGwasEO-9yrZ">
    <mxGraphModel dx="1500" dy="782" grid="1" gridSize="10" guides="1" tooltips="1" connect="1" arrows="1" fold="1" page="1" pageScale="1" pageWidth="980" pageHeight="1390" math="0" shadow="0">
      <root>
        <mxCell id="0" />
        <mxCell id="1" parent="0" />
        <mxCell id="8Ul96H81zf3qTr5yMLvG-8" value="&lt;h1&gt;Requirements:&lt;/h1&gt;&lt;div&gt;&lt;b&gt;1. Admin Flow&lt;/b&gt;&lt;/div&gt;&lt;div&gt;&lt;b&gt;&lt;span style=&quot;white-space: pre;&quot;&gt;	&lt;/span&gt;1)&amp;nbsp;Login to Admin interface&lt;br&gt;&lt;/b&gt;&lt;/div&gt;&lt;div&gt;&lt;b&gt;&lt;span style=&quot;white-space: pre;&quot;&gt;	&lt;/span&gt;2) Add or modify Subjects&lt;br&gt;&lt;/b&gt;&lt;/div&gt;&lt;div&gt;&lt;b&gt;&lt;span style=&quot;white-space: pre;&quot;&gt;	&lt;/span&gt;3) Create a question and&amp;nbsp; add its answers/ Multiple Choice for a particular Subject.(Question Difficulty Level?)&lt;/b&gt;&lt;/div&gt;&lt;div&gt;&lt;b&gt;&lt;span style=&quot;white-space: pre;&quot;&gt;	&lt;/span&gt;4) Search for a question and&amp;nbsp; modify or remove it&lt;br&gt;&lt;/b&gt;&lt;/div&gt;&lt;div&gt;&lt;b&gt;&lt;span style=&quot;white-space: pre;&quot;&gt;	&lt;/span&gt;5) Create a timed test and add questions to it from existing list of questions.&lt;br&gt;&lt;/b&gt;&lt;/div&gt;&lt;div&gt;&lt;b&gt;&lt;span style=&quot;white-space: pre;&quot;&gt;	&lt;/span&gt;6) Schedule a timed test and send notifications to Students&lt;br&gt;&lt;/b&gt;&lt;/div&gt;&lt;div&gt;&lt;b&gt;&lt;br&gt;&lt;/b&gt;&lt;/div&gt;&lt;div&gt;&lt;b&gt;2. Student Flow&lt;/b&gt;&lt;/div&gt;&lt;div&gt;&lt;b&gt;&lt;span style=&quot;white-space: pre;&quot;&gt;	&lt;/span&gt;1) Create account with Email ID and mobile number (or google Oauth?)&lt;/b&gt;&lt;/div&gt;&lt;div&gt;&lt;b&gt;&lt;span style=&quot;white-space: pre;&quot;&gt;	&lt;/span&gt;2) Practice Questions and tests?&lt;/b&gt;&lt;/div&gt;&lt;div&gt;&lt;b&gt;&lt;span style=&quot;white-space: pre;&quot;&gt;	&lt;/span&gt;3) Register&amp;nbsp; for a timed test&lt;br&gt;&lt;/b&gt;&lt;/div&gt;&lt;div&gt;&lt;b&gt;&lt;span style=&quot;white-space: pre;&quot;&gt;	&lt;/span&gt;4) Give test&lt;br&gt;&lt;/b&gt;&lt;/div&gt;&lt;div&gt;&lt;b&gt;&lt;span style=&quot;white-space: pre;&quot;&gt;	&lt;/span&gt;5) Check results and correct answers after the test.&lt;br&gt;&lt;/b&gt;&lt;/div&gt;&lt;div&gt;&lt;b&gt;&lt;span style=&quot;white-space: pre;&quot;&gt;	&lt;/span&gt;6)&lt;br&gt;&lt;/b&gt;&lt;/div&gt;&lt;div&gt;&lt;span style=&quot;white-space: pre;&quot;&gt;&lt;b&gt;	&lt;/b&gt;&lt;/span&gt;&lt;br&gt;&lt;/div&gt;" style="text;html=1;strokeColor=none;fillColor=none;spacing=5;spacingTop=-20;whiteSpace=wrap;overflow=hidden;rounded=0;" vertex="1" parent="1">
          <mxGeometry x="120" y="10" width="780" height="330" as="geometry" />
        </mxCell>
        <mxCell id="hnuCmHXV3mzeoVSlP5Ix-1" value="&lt;h1&gt;Details:&lt;/h1&gt;&lt;div&gt;&lt;br&gt;&lt;/div&gt;" style="text;html=1;strokeColor=none;fillColor=none;spacing=5;spacingTop=-20;whiteSpace=wrap;overflow=hidden;rounded=0;" vertex="1" parent="1">
          <mxGeometry x="130" y="350" width="780" height="330" as="geometry" />
        </mxCell>
      </root>
    </mxGraphModel>
  </diagram>
  <diagram id="7d7ccGjSimLIf_iORB9R" name="Design">
    <mxGraphModel dx="1500" dy="782" grid="1" gridSize="10" guides="1" tooltips="1" connect="1" arrows="1" fold="1" page="1" pageScale="1" pageWidth="980" pageHeight="1390" math="0" shadow="0">
      <root>
        <mxCell id="0" />
        <mxCell id="1" parent="0" />
        <mxCell id="a7yS2JeS2E-IPmoMl_OY-8" value="" style="edgeStyle=orthogonalEdgeStyle;rounded=0;orthogonalLoop=1;jettySize=auto;html=1;" edge="1" parent="1" target="a7yS2JeS2E-IPmoMl_OY-7">
          <mxGeometry relative="1" as="geometry">
            <mxPoint x="80" y="130" as="sourcePoint" />
            <Array as="points">
              <mxPoint x="80" y="140" />
            </Array>
          </mxGeometry>
        </mxCell>
        <mxCell id="a7yS2JeS2E-IPmoMl_OY-1" value="Admin" style="shape=umlActor;verticalLabelPosition=bottom;verticalAlign=top;html=1;outlineConnect=0;" vertex="1" parent="1">
          <mxGeometry x="60" y="110" width="30" height="60" as="geometry" />
        </mxCell>
        <mxCell id="a7yS2JeS2E-IPmoMl_OY-11" value="" style="edgeStyle=orthogonalEdgeStyle;rounded=0;orthogonalLoop=1;jettySize=auto;html=1;" edge="1" parent="1" source="a7yS2JeS2E-IPmoMl_OY-7">
          <mxGeometry relative="1" as="geometry">
            <mxPoint x="400" y="160" as="targetPoint" />
          </mxGeometry>
        </mxCell>
        <object label="DNS" id="a7yS2JeS2E-IPmoMl_OY-7">
          <mxCell style="whiteSpace=wrap;html=1;verticalAlign=top;" vertex="1" parent="1">
            <mxGeometry x="180" y="130" width="120" height="60" as="geometry" />
          </mxCell>
        </object>
        <mxCell id="a7yS2JeS2E-IPmoMl_OY-9" value="Pareeksha - Cloud" style="swimlane;whiteSpace=wrap;html=1;" vertex="1" parent="1">
          <mxGeometry x="360" y="60" width="530" height="470" as="geometry" />
        </mxCell>
        <mxCell id="a7yS2JeS2E-IPmoMl_OY-2" value="" style="image;sketch=0;aspect=fixed;html=1;points=[];align=center;fontSize=12;image=img/lib/mscae/Database_General.svg;" vertex="1" parent="a7yS2JeS2E-IPmoMl_OY-9">
          <mxGeometry x="440" y="110" width="38" height="50" as="geometry" />
        </mxCell>
        <mxCell id="a7yS2JeS2E-IPmoMl_OY-12" value="Admin API" style="shape=process;whiteSpace=wrap;html=1;backgroundOutline=1;" vertex="1" parent="a7yS2JeS2E-IPmoMl_OY-9">
          <mxGeometry x="170" y="40" width="120" height="60" as="geometry" />
        </mxCell>
        <mxCell id="a7yS2JeS2E-IPmoMl_OY-14" value="" style="edgeStyle=orthogonalEdgeStyle;rounded=0;orthogonalLoop=1;jettySize=auto;html=1;" edge="1" parent="a7yS2JeS2E-IPmoMl_OY-9" source="a7yS2JeS2E-IPmoMl_OY-13" target="a7yS2JeS2E-IPmoMl_OY-12">
          <mxGeometry relative="1" as="geometry" />
        </mxCell>
        <mxCell id="a7yS2JeS2E-IPmoMl_OY-16" value="" style="edgeStyle=orthogonalEdgeStyle;rounded=0;orthogonalLoop=1;jettySize=auto;html=1;" edge="1" parent="a7yS2JeS2E-IPmoMl_OY-9" source="a7yS2JeS2E-IPmoMl_OY-13" target="a7yS2JeS2E-IPmoMl_OY-15">
          <mxGeometry relative="1" as="geometry" />
        </mxCell>
        <mxCell id="a7yS2JeS2E-IPmoMl_OY-13" value="API GateWay&lt;br&gt;&lt;br&gt;Auth" style="shape=process;whiteSpace=wrap;html=1;backgroundOutline=1;" vertex="1" parent="a7yS2JeS2E-IPmoMl_OY-9">
          <mxGeometry x="50" y="30" width="60" height="190" as="geometry" />
        </mxCell>
        <mxCell id="a7yS2JeS2E-IPmoMl_OY-15" value="Test API" style="shape=process;whiteSpace=wrap;html=1;backgroundOutline=1;" vertex="1" parent="a7yS2JeS2E-IPmoMl_OY-9">
          <mxGeometry x="170" y="150" width="120" height="60" as="geometry" />
        </mxCell>
        <mxCell id="a7yS2JeS2E-IPmoMl_OY-17" value="Notification Service" style="shape=process;whiteSpace=wrap;html=1;backgroundOutline=1;" vertex="1" parent="a7yS2JeS2E-IPmoMl_OY-9">
          <mxGeometry x="170" y="270" width="120" height="60" as="geometry" />
        </mxCell>
        <mxCell id="a7yS2JeS2E-IPmoMl_OY-25" value="" style="endArrow=classic;html=1;rounded=0;entryX=1;entryY=0.5;entryDx=0;entryDy=0;" edge="1" parent="a7yS2JeS2E-IPmoMl_OY-9" source="a7yS2JeS2E-IPmoMl_OY-2" target="a7yS2JeS2E-IPmoMl_OY-17">
          <mxGeometry width="50" height="50" relative="1" as="geometry">
            <mxPoint x="434" y="250" as="sourcePoint" />
            <mxPoint x="484" y="200" as="targetPoint" />
            <Array as="points">
              <mxPoint x="460" y="300" />
            </Array>
          </mxGeometry>
        </mxCell>
        <mxCell id="a7yS2JeS2E-IPmoMl_OY-20" value="Student" style="shape=umlActor;verticalLabelPosition=bottom;verticalAlign=top;html=1;outlineConnect=0;" vertex="1" parent="1">
          <mxGeometry x="60" y="340" width="30" height="60" as="geometry" />
        </mxCell>
        <mxCell id="a7yS2JeS2E-IPmoMl_OY-21" value="Registered Students" style="shape=umlActor;verticalLabelPosition=bottom;verticalAlign=top;html=1;outlineConnect=0;" vertex="1" parent="1">
          <mxGeometry x="50" y="450" width="30" height="60" as="geometry" />
        </mxCell>
        <mxCell id="a7yS2JeS2E-IPmoMl_OY-24" value="" style="edgeStyle=orthogonalEdgeStyle;rounded=0;orthogonalLoop=1;jettySize=auto;html=1;entryX=1;entryY=0.3333333333333333;entryDx=0;entryDy=0;entryPerimeter=0;" edge="1" parent="1" source="a7yS2JeS2E-IPmoMl_OY-17" target="a7yS2JeS2E-IPmoMl_OY-21">
          <mxGeometry relative="1" as="geometry">
            <mxPoint x="450" y="470" as="targetPoint" />
            <Array as="points">
              <mxPoint x="590" y="470" />
            </Array>
          </mxGeometry>
        </mxCell>
        <mxCell id="a7yS2JeS2E-IPmoMl_OY-26" value="" style="endArrow=classic;startArrow=classic;html=1;rounded=0;entryX=1;entryY=0.5;entryDx=0;entryDy=0;" edge="1" parent="1" target="a7yS2JeS2E-IPmoMl_OY-15">
          <mxGeometry width="50" height="50" relative="1" as="geometry">
            <mxPoint x="810" y="200" as="sourcePoint" />
            <mxPoint x="510" y="350" as="targetPoint" />
            <Array as="points">
              <mxPoint x="800" y="200" />
            </Array>
          </mxGeometry>
        </mxCell>
        <mxCell id="a7yS2JeS2E-IPmoMl_OY-27" value="" style="endArrow=classic;startArrow=classic;html=1;rounded=0;entryX=1;entryY=0.25;entryDx=0;entryDy=0;" edge="1" parent="1" target="a7yS2JeS2E-IPmoMl_OY-12">
          <mxGeometry width="50" height="50" relative="1" as="geometry">
            <mxPoint x="820" y="170" as="sourcePoint" />
            <mxPoint x="510" y="350" as="targetPoint" />
            <Array as="points">
              <mxPoint x="820" y="120" />
            </Array>
          </mxGeometry>
        </mxCell>
        <mxCell id="a7yS2JeS2E-IPmoMl_OY-28" value="" style="endArrow=classic;html=1;rounded=0;entryX=0.5;entryY=1;entryDx=0;entryDy=0;" edge="1" parent="1" target="a7yS2JeS2E-IPmoMl_OY-7">
          <mxGeometry width="50" height="50" relative="1" as="geometry">
            <mxPoint x="100" y="400" as="sourcePoint" />
            <mxPoint x="150" y="350" as="targetPoint" />
            <Array as="points">
              <mxPoint x="230" y="400" />
            </Array>
          </mxGeometry>
        </mxCell>
      </root>
    </mxGraphModel>
  </diagram>
</mxfile>
